<svg width="201" height="49" viewBox="0 0 201 49" fill="none" xmlns="http://www.w3.org/2000/svg">
<circle cx="22" cy="22" r="22" transform="matrix(1 0 0 -1 0 48)" fill="#0C0808"/>
<path d="M59.6527 16.5805C61.3265 16.5805 62.8172 16.9205 64.1249 17.6005C65.4587 18.2543 66.5048 19.2743 67.2633 20.6604C68.0217 22.0204 68.4009 23.7727 68.4009 25.9172V38H62.2811V26.8587C62.2811 25.1588 61.9019 23.9034 61.1434 23.0927C60.4111 22.2819 59.365 21.8766 58.005 21.8766C57.0374 21.8766 56.1612 22.0858 55.3766 22.5042C54.6182 22.8965 54.0167 23.5111 53.5721 24.348C53.1536 25.1849 52.9444 26.2572 52.9444 27.5649V38H46.8245V8.89149H52.9444V22.7396L51.5713 20.9743C52.3298 19.562 53.4152 18.4766 54.8274 17.7182C56.2397 16.9598 57.8481 16.5805 59.6527 16.5805ZM82.5751 38.3138C80.326 38.3138 78.3252 37.8431 76.573 36.9016C74.8469 35.9601 73.4738 34.6785 72.4539 33.057C71.46 31.4094 70.9631 29.5394 70.9631 27.4472C70.9631 25.3288 71.46 23.4588 72.4539 21.8373C73.4738 20.1897 74.8469 18.9082 76.573 17.9928C78.3252 17.0513 80.326 16.5805 82.5751 16.5805C84.7982 16.5805 86.7858 17.0513 88.5381 17.9928C90.2903 18.9082 91.6634 20.1766 92.6572 21.7981C93.651 23.4196 94.1479 25.3026 94.1479 27.4472C94.1479 29.5394 93.651 31.4094 92.6572 33.057C91.6634 34.6785 90.2903 35.9601 88.5381 36.9016C86.7858 37.8431 84.7982 38.3138 82.5751 38.3138ZM82.5751 33.2924C83.5951 33.2924 84.5105 33.057 85.3212 32.5863C86.132 32.1155 86.7727 31.4486 87.2435 30.5856C87.7142 29.6964 87.9496 28.6502 87.9496 27.4472C87.9496 26.218 87.7142 25.1719 87.2435 24.3088C86.7727 23.4457 86.132 22.7788 85.3212 22.3081C84.5105 21.8373 83.5951 21.6019 82.5751 21.6019C81.5552 21.6019 80.6398 21.8373 79.8291 22.3081C79.0183 22.7788 78.3645 23.4457 77.8676 24.3088C77.3968 25.1719 77.1614 26.218 77.1614 27.4472C77.1614 28.6502 77.3968 29.6964 77.8676 30.5856C78.3645 31.4486 79.0183 32.1155 79.8291 32.5863C80.6398 33.057 81.5552 33.2924 82.5751 33.2924ZM96.6694 38V16.8944H102.515V22.8573L101.691 21.1312C102.318 19.6405 103.325 18.5159 104.711 17.7574C106.098 16.9728 107.784 16.5805 109.772 16.5805V22.2296C109.511 22.2035 109.275 22.1904 109.066 22.1904C108.857 22.1642 108.634 22.1512 108.399 22.1512C106.725 22.1512 105.365 22.635 104.319 23.6027C103.299 24.5442 102.789 26.0218 102.789 28.0356V38H96.6694ZM121.2 38.3138C118.716 38.3138 116.78 37.6862 115.394 36.4308C114.008 35.1493 113.315 33.2532 113.315 30.7425V12.226H119.435V30.664C119.435 31.5532 119.67 32.2463 120.141 32.7432C120.612 33.214 121.253 33.4493 122.063 33.4493C123.031 33.4493 123.855 33.1878 124.535 32.6647L126.182 36.98C125.555 37.4246 124.796 37.7646 123.907 38C123.044 38.2092 122.142 38.3138 121.2 38.3138ZM110.059 22.0727V17.3651H124.692V22.0727H110.059ZM126.881 29.4087V24.505H137.983V29.4087H126.881ZM141.229 38V8.89149H147.349V38H141.229ZM164.287 16.5805C165.961 16.5805 167.452 16.9205 168.76 17.6005C170.093 18.2543 171.14 19.2743 171.898 20.6604C172.656 22.0204 173.036 23.7727 173.036 25.9172V38H166.916V26.8587C166.916 25.1588 166.537 23.9034 165.778 23.0927C165.046 22.2819 164 21.8766 162.64 21.8766C161.672 21.8766 160.796 22.0858 160.011 22.5042C159.253 22.8965 158.651 23.5111 158.207 24.348C157.788 25.1849 157.579 26.2572 157.579 27.5649V38H151.459V16.8944H157.305V22.7396L156.206 20.9743C156.965 19.562 158.05 18.4766 159.462 17.7182C160.874 16.9598 162.483 16.5805 164.287 16.5805ZM182.074 33.6847L182.231 26.2311L192.078 16.8944H199.375L189.92 26.5057L186.743 29.0948L182.074 33.6847ZM177.014 38V8.89149H183.134V38H177.014ZM192.745 38L185.605 29.1341L189.45 24.3873L200.159 38H192.745Z" fill="#6A36FE"/>
<g filter="url(#filter0_d_247_8)">
<path d="M22.2789 40.4707C20.082 40.4707 17.9767 40.183 15.9629 39.6077C13.9491 39.0061 12.3276 38.2346 11.0984 37.2931L13.2561 32.5071C14.433 33.344 15.8191 34.037 17.4144 34.5863C19.0359 35.1093 20.6705 35.3709 22.3181 35.3709C23.5735 35.3709 24.5804 35.2532 25.3388 35.0178C26.1234 34.7563 26.6988 34.4032 27.0649 33.9586C27.4311 33.514 27.6142 33.004 27.6142 32.4286C27.6142 31.6963 27.3265 31.121 26.7511 30.7025C26.1757 30.2579 25.4173 29.9048 24.4758 29.6433C23.5343 29.3556 22.4881 29.0941 21.3374 28.8587C20.2128 28.5972 19.0751 28.2833 17.9244 27.9172C16.7998 27.551 15.7668 27.0803 14.8252 26.5049C13.8837 25.9296 13.1122 25.1711 12.5107 24.2296C11.9353 23.2881 11.6476 22.085 11.6476 20.6205C11.6476 19.0513 12.0661 17.6259 12.903 16.3444C13.766 15.0367 15.0476 14.0037 16.7475 13.2453C18.4736 12.4607 20.6313 12.0684 23.2204 12.0684C24.9465 12.0684 26.6465 12.2776 28.3203 12.696C29.9941 13.0883 31.4718 13.6899 32.7533 14.5006L30.7918 19.3259C29.5103 18.5936 28.2288 18.0574 26.9473 17.7174C25.6657 17.3513 24.4104 17.1682 23.1812 17.1682C21.952 17.1682 20.9451 17.3121 20.1605 17.5998C19.3759 17.8874 18.8136 18.2667 18.4736 18.7374C18.1336 19.182 17.9636 19.7051 17.9636 20.3066C17.9636 21.0128 18.2513 21.5881 18.8267 22.0327C19.4021 22.4512 20.1605 22.7912 21.102 23.0527C22.0435 23.3142 23.0766 23.5758 24.2012 23.8373C25.3519 24.0988 26.4896 24.3996 27.6142 24.7396C28.7649 25.0796 29.811 25.5373 30.7525 26.1126C31.6941 26.688 32.4525 27.4464 33.0279 28.388C33.6294 29.3295 33.9302 30.5194 33.9302 31.9579C33.9302 33.5009 33.4986 34.9132 32.6356 36.1947C31.7725 37.4762 30.4779 38.5092 28.7518 39.2938C27.0519 40.0784 24.8942 40.4707 22.2789 40.4707Z" fill="#6A36FE"/>
</g>
<g filter="url(#filter1_f_247_8)">
<path d="M22.2789 40.4707C20.082 40.4707 17.9767 40.183 15.9629 39.6077C13.9491 39.0061 12.3276 38.2346 11.0984 37.2931L13.2561 32.5071C14.433 33.344 15.8191 34.037 17.4144 34.5863C19.0359 35.1093 20.6705 35.3709 22.3181 35.3709C23.5735 35.3709 24.5804 35.2532 25.3388 35.0178C26.1234 34.7563 26.6988 34.4032 27.0649 33.9586C27.4311 33.514 27.6142 33.004 27.6142 32.4286C27.6142 31.6963 27.3265 31.121 26.7511 30.7025C26.1757 30.2579 25.4173 29.9048 24.4758 29.6433C23.5343 29.3556 22.4881 29.0941 21.3374 28.8587C20.2128 28.5972 19.0751 28.2833 17.9244 27.9172C16.7998 27.551 15.7668 27.0803 14.8252 26.5049C13.8837 25.9296 13.1122 25.1711 12.5107 24.2296C11.9353 23.2881 11.6476 22.085 11.6476 20.6205C11.6476 19.0513 12.0661 17.6259 12.903 16.3444C13.766 15.0367 15.0476 14.0037 16.7475 13.2453C18.4736 12.4607 20.6313 12.0684 23.2204 12.0684C24.9465 12.0684 26.6465 12.2776 28.3203 12.696C29.9941 13.0883 31.4718 13.6899 32.7533 14.5006L30.7918 19.3259C29.5103 18.5936 28.2288 18.0574 26.9473 17.7174C25.6657 17.3513 24.4104 17.1682 23.1812 17.1682C21.952 17.1682 20.9451 17.3121 20.1605 17.5998C19.3759 17.8874 18.8136 18.2667 18.4736 18.7374C18.1336 19.182 17.9636 19.7051 17.9636 20.3066C17.9636 21.0128 18.2513 21.5881 18.8267 22.0327C19.4021 22.4512 20.1605 22.7912 21.102 23.0527C22.0435 23.3142 23.0766 23.5758 24.2012 23.8373C25.3519 24.0988 26.4896 24.3996 27.6142 24.7396C28.7649 25.0796 29.811 25.5373 30.7525 26.1126C31.6941 26.688 32.4525 27.4464 33.0279 28.388C33.6294 29.3295 33.9302 30.5194 33.9302 31.9579C33.9302 33.5009 33.4986 34.9132 32.6356 36.1947C31.7725 37.4762 30.4779 38.5092 28.7518 39.2938C27.0519 40.0784 24.8942 40.4707 22.2789 40.4707Z" fill="#6A36FE"/>
</g>
<defs>
<filter id="filter0_d_247_8" x="7.09842" y="12.0684" width="30.8317" height="36.4023" filterUnits="userSpaceOnUse" color-interpolation-filters="sRGB">
<feFlood flood-opacity="0" result="BackgroundImageFix"/>
<feColorMatrix in="SourceAlpha" type="matrix" values="0 0 0 0 0 0 0 0 0 0 0 0 0 0 0 0 0 0 127 0" result="hardAlpha"/>
<feOffset dy="4"/>
<feGaussianBlur stdDeviation="2"/>
<feComposite in2="hardAlpha" operator="out"/>
<feColorMatrix type="matrix" values="0 0 0 0 0 0 0 0 0 0 0 0 0 0 0 0 0 0 0.25 0"/>
<feBlend mode="normal" in2="BackgroundImageFix" result="effect1_dropShadow_247_8"/>
<feBlend mode="normal" in="SourceGraphic" in2="effect1_dropShadow_247_8" result="shape"/>
</filter>
<filter id="filter1_f_247_8" x="7.09842" y="8.06836" width="30.8317" height="36.4023" filterUnits="userSpaceOnUse" color-interpolation-filters="sRGB">
<feFlood flood-opacity="0" result="BackgroundImageFix"/>
<feBlend mode="normal" in="SourceGraphic" in2="BackgroundImageFix" result="shape"/>
<feGaussianBlur stdDeviation="2" result="effect1_foregroundBlur_247_8"/>
</filter>
</defs>
</svg>
